<!-- Generator: Adobe Illustrator 19.0.0, SVG Export Plug-In  -->
<svg version="1.1"
	 xmlns="http://www.w3.org/2000/svg" xmlns:xlink="http://www.w3.org/1999/xlink" xmlns:a="http://ns.adobe.com/AdobeSVGViewerExtensions/3.0/"
	 x="0px" y="0px" width="369.4px" height="136.1px" viewBox="0 0 369.4 136.1" style="enable-background:new 0 0 369.4 136.1;"
	 xml:space="preserve">
<style type="text/css">
	.st0{fill:#FFFFFF;}
	.st1{font-family:'KeepCalm-Medium';}
	.st2{font-size:36px;}
</style>
<defs>
</defs>
<g id="XMLID_16_">
	<path id="XMLID_24_" class="st0" d="M65.7,55.2"/>
	<path id="XMLID_23_" class="st0" d="M65.7,114.2c0.9-0.1,3.9-0.8,6.2-4.6c0,0-0.7-6.9,7-6.3l0.9-5.6l-5.9-1.5c0,0-1.3,5.9-8.2,3.9
		h0c-6.9,2-8.2-3.9-8.2-3.9l-5.9,2.2l0.9,5.3c7.7-0.7,7,6.1,7,6.1C61.8,113.6,64.8,114.1,65.7,114.2"/>
	<g id="XMLID_20_">
		<path id="XMLID_22_" class="st0" d="M103.2,42.9c0,0-13.4,1.4-23.4,18.5l2.2-1.8c0,0,19.2,10.6,21.2-10.4V42.9z"/>
		<path id="XMLID_21_" class="st0" d="M24.2,42.9c0,0,15.3,1.4,25.2,18.5l-3.1-1.8c0,0-22.1,10.6-22.1-10.4V42.9z"/>
	</g>
	<path id="XMLID_19_" class="st0" d="M131.3,13.1c-2.1-31.2-25.7,3-25.7,3c-0.4,1.8,8.3,11.1,8.3,11.1c4.6,1.6,7.6,4.6,9.3,6.7
		l0,0.1c0.1,1-0.1,18.7-1,25.1c-1.1,7.9-4.8,13.9-6.3,16.1c-5.2,7.4-12.2,11.3-17.2,13.3l-0.3,0.2c-1.1,1.1-2,2.3-2.7,3.7
		c-1.1,2.2-1.4,4.2-1.6,5.9c-0.4,3.6-0.4,7.6-0.3,11.9l-13.9,13.8c-1.1,0.2-2.1,1.8-3.2,1.8c-3.4,0-7.1,0.1-11-1.9h-0.1
		c-3.9,2-7.5,1.9-10.9,1.9c-1.1,0-2.2-0.8-3.2-1.1l-13.9-14.2c0.2-4.3,0.1-8.5-0.3-12.1c-0.2-1.7-0.4-3.8-1.6-6
		c-0.7-1.3-1.6-2.6-2.7-3.7l-0.3-0.2c-5-2-12.1-5.9-17.2-13.3c-1.6-2.2-5.3-8.3-6.3-16.2c-0.9-6.4-1-24.2-1-25.1l0-0.1
		c1.7-2.2,4.7-5.2,9.3-6.7c0,0,8.6-9.3,8.3-11.1c0,0-23.6-34.2-25.7-3c0,0,3.2,6,1.2,13.7c0,0,1.2,4.5,4.7,8.9
		c-1.4,6.7-4.6,27,4.9,41c3.1,4.5,6.5,7.6,9.8,10.6c5.2,4.7,10.2,9.1,13.6,18.9c0.6,1.7,1.1,3.4,1.4,5.1l0.2,0
		c0.8,1.5,7.6,15.7,13.2,17c2,3.7,8.5,7.8,16.8,7.8h0c8.2,0,14.7-4.1,16.8-7.8c5.6-1.3,12.4-14.7,13.2-16.2l0.2-0.4
		c0.4-1.7,0.9-3.6,1.4-5.3c3.4-9.8,8.3-14.3,13.6-19c3.3-3,6.7-6.1,9.8-10.6c9.5-14,6.3-34.3,4.9-41c3.5-4.4,4.7-8.9,4.7-8.9
		C128.2,19.2,131.3,13.1,131.3,13.1z"/>
	<path id="XMLID_18_" class="st0" d="M65.7,123.6"/>
	<path id="XMLID_17_" class="st0" d="M65.7,123.6"/>
</g>
<text id="XMLID_15_" transform="matrix(1 0 0 1 155.628 70.2587)" class="st0 st1 st2">whistle box</text>
</svg>

